cyclingleg_states
version=1
nRows=6
nColumns=49
inDegrees=yes

# SIMM Motion File Header:
name cyclingleg_states
datacolumns 49
datarows 6
otherdata 1
range 2.32002018 2.32495540
endheader
time	bb/crank_angle/value	bb/crank_angle/speed	spindle/pedal_angle_r/value	spindle/pedal_angle_r/speed	ground_pelvis/pelvis_tilt/value	ground_pelvis/pelvis_tilt/speed	ground_pelvis/pelvis_list/value	ground_pelvis/pelvis_list/speed	ground_pelvis/pelvis_rotation/value	ground_pelvis/pelvis_rotation/speed	ground_pelvis/pelvis_tx/value	ground_pelvis/pelvis_tx/speed	ground_pelvis/pelvis_ty/value	ground_pelvis/pelvis_ty/speed	ground_pelvis/pelvis_tz/value	ground_pelvis/pelvis_tz/speed	hip_r/hip_angle_r/value	hip_r/hip_angle_r/speed	hip_r/hip_adduction_r/value	hip_r/hip_adduction_r/speed	hip_r/hip_rotation_r/value	hip_r/hip_rotation_r/speed	knee_r/knee_angle_r/value	knee_r/knee_angle_r/speed	knee_r/tib_tx_r/value	knee_r/tib_tx_r/speed	knee_r/tib_ty_r/value	knee_r/tib_ty_r/speed	tib_pat_r/pat_angle_r/value	tib_pat_r/pat_angle_r/speed	tib_pat_r/pat_tx_r/value	tib_pat_r/pat_tx_r/speed	tib_pat_r/pat_ty_r/value	tib_pat_r/pat_ty_r/speed	ankle_r/ankle_angle_r/value	ankle_r/ankle_angle_r/speed	subtalar_r/subtalar_angle_r/value	subtalar_r/subtalar_angle_r/speed	mtp_r/mtp_angle_r/value	mtp_r/mtp_angle_r/speed	bifemlh_r/activation	bifemlh_r/fiber_length	bifemsh_r/activation	bifemsh_r/fiber_length	glut_max2_r/activation	glut_max2_r/fiber_length	vas_int_r/activation	vas_int_r/fiber_length
      2.32002018	   -848.37844717	   -533.04909350	    865.52109449	    597.14485790	      0.00000000	      0.00000000	     -0.00000000	     -0.00000000	     -0.00000000	     -0.00000000	     -0.10000000	      0.00000000	     -0.05000000	      0.00000000	      0.00000000	     -0.00000000	     47.90979266	   -230.62973596	      4.37824260	     -0.44573925	      1.33885630	     23.15945064	    -53.02223890	    262.70261224	      0.00419744	     -0.02817567	     -0.47389785	      0.07501430	     17.20110702	     -9.59108866	      0.04483329	      0.07410029	     -0.02318334	     -0.00996561	     22.66514379	     31.75587420	      0.00000000	      0.00000000	     -0.00000000	     -0.00000000	      0.02000000	      0.13023454	      0.02000000	      0.16993442	      0.02000000	      0.13670694	      0.02000000	      0.12437583
      2.32107187	   -848.94071762	   -536.23567520	    866.15044249	    599.69254453	      0.00000000	      0.00000000	     -0.00000000	     -0.00000000	     -0.00000000	     -0.00000000	     -0.10000000	      0.00000000	     -0.05000000	     -0.00000000	      0.00000000	     -0.00000000	     47.66700288	   -231.07998005	      4.37776632	     -0.45996431	      1.36322691	     23.18531029	    -52.74633020	    261.98166768	      0.00416766	     -0.02844439	     -0.47381919	      0.07457718	     17.19093286	     -9.75675703	      0.04491103	      0.07374415	     -0.02319381	     -0.00995828	     22.69882668	     32.29785231	      0.00000000	      0.00000000	     -0.00000000	     -0.00000000	      0.02000000	      0.13014347	      0.02000000	      0.17003390	      0.02000000	      0.13653555	      0.02000000	      0.12415859
      2.32183629	   -849.35152505	   -538.59060975	    866.60956834	    601.54694332	      0.00000000	      0.00000000	     -0.00000000	     -0.00000000	     -0.00000000	     -0.00000000	     -0.10000000	      0.00000000	     -0.05000000	      0.00000000	      0.00000000	     -0.00000000	     47.49024281	   -231.38505495	      4.37741082	     -0.47012066	      1.38095610	     23.20008205	    -52.54628368	    261.40471051	      0.00414585	     -0.02862880	     -0.47376231	      0.07424459	     17.18342915	     -9.87538731	      0.04496730	      0.07347099	     -0.02320142	     -0.00995116	     22.72366465	     32.68643711	      0.00000000	      0.00000000	     -0.00000000	     -0.00000000	      0.02000000	      0.13007673	      0.02000000	      0.17016578	      0.02000000	      0.13641043	      0.02000000	      0.12400077
      2.32287599	   -849.91319051	   -541.85507000	    867.23631445	    604.07937719	      0.00000000	      0.00000000	     -0.00000000	     -0.00000000	     -0.00000000	     -0.00000000	     -0.10000000	      0.00000000	     -0.05000000	      0.00000000	      0.00000000	     -0.00000000	     47.24946721	   -231.77119589	      4.37691496	     -0.48367013	      1.40508544	     23.21460017	    -52.27493827	    260.54787719	      0.00411596	     -0.02886454	     -0.47368536	      0.07377225	     17.17307889	    -10.03408878	      0.04504349	      0.07308014	     -0.02321176	     -0.00993902	     22.75792035	     33.20708515	      0.00000000	      0.00000000	     -0.00000000	     -0.00000000	      0.02000000	      0.12998521	      0.02000000	      0.17030779	      0.02000000	      0.13623955	      0.02000000	      0.12378630
      2.32391570	   -850.47828723	   -545.18943235	    867.86569828	    606.61828595	      0.00000000	      0.00000000	     -0.00000000	     -0.00000000	     -0.00000000	     -0.00000000	     -0.10000000	      0.00000000	     -0.05000000	     -0.00000000	      0.00000000	     -0.00000000	     47.00830865	   -232.12038853	      4.37640519	     -0.49688394	      1.42922627	     23.22200208	    -52.00452934	    259.60134063	      0.00408583	     -0.02908189	     -0.47360891	      0.07327529	     17.16256542	    -10.18922437	      0.04511926	      0.07266535	     -0.02322209	     -0.00992376	     22.79271206	     33.71712505	      0.00000000	      0.00000000	     -0.00000000	     -0.00000000	      0.02000000	      0.12989281	      0.02000000	      0.17056644	      0.02000000	      0.13606789	      0.02000000	      0.12357210
      2.32495540	   -851.04689490	   -548.60848810	    868.49773178	    609.17511306	      0.00000000	      0.00000000	     -0.00000000	     -0.00000000	     -0.00000000	     -0.00000000	     -0.10000000	      0.00000000	     -0.05000000	     -0.00000000	      0.00000000	     -0.00000000	     46.76680459	   -232.43500635	      4.37588186	     -0.50974045	      1.45337110	     23.22214915	    -51.73515050	    258.56494993	      0.00405549	     -0.02928051	     -0.47353299	      0.07275403	     17.15189261	    -10.34048986	      0.04519458	      0.07222678	     -0.02323240	     -0.00990532	     22.82802828	     34.21572196	      0.00000000	      0.00000000	     -0.00000000	     -0.00000000	      0.02000000	      0.12979953	      0.02000000	      0.17063081	      0.02000000	      0.13589545	      0.02000000	      0.12335824
